<svg width="2500" height="308" viewBox="0 0 2500 308" fill="none" xmlns="http://www.w3.org/2000/svg">
<g clip-path="url(#clip0_19_2)">
<path d="M583.547 113.712H372.69L365.159 119.737V307.247H423.145V236.459L428.415 231.189H583.545C622.702 231.189 640.777 220.647 640.777 193.538V150.613C640.779 124.254 622.705 113.712 583.547 113.712ZM583.547 182.992C583.547 195.793 575.262 198.052 556.436 198.052H429.17L423.145 192.782V152.87L428.415 147.599H556.434C574.509 147.599 583.544 149.858 583.544 162.659L583.547 182.992ZM747.712 149.104L798.167 222.903L795.155 229.681H683.702L655.086 265.075H820.758L832.807 271.852L858.411 307.246H925.433L778.588 111.452M1412.66 269.593V216.88L1418.68 211.608H1530.89V178.473H1353.17V307.246H1615.23V274.112H1419.44M1353.17 113.712H1617.49V149.858H1353.17V113.712ZM1058.72 148.352H1271.84C1268.83 121.242 1251.51 113.712 1209.33 113.712H1056.47C1008.27 113.712 993.209 122.749 993.209 159.647V262.062C993.209 298.21 1008.27 308 1056.47 308H1209.33C1252.26 308 1268.83 299.716 1270.33 271.852H1058.72L1052.7 265.827V152.87M222.079 189.017H67.7035L63.1849 183.747V150.612L67.7035 146.847H276.299L279.312 140.069C272.534 121.995 253.708 112.96 219.82 112.96H74.4804C26.2855 112.96 11.2241 121.996 11.2241 158.895V180.734C11.2241 216.881 26.2855 226.671 74.4804 226.671H228.857L233.375 231.188V265.828L229.61 271.1H6.70554C6.70554 271.1 1.43518 274.112 1.43518 274.865C5.2 300.469 22.5206 307.246 63.9377 307.246H222.08C270.275 307.246 286.09 298.21 286.09 261.311V234.953C286.089 198.807 270.275 189.017 222.079 189.017ZM1783.92 112.959H1696.56L1692.04 121.995L1788.43 192.783C1806.51 182.239 1826.84 171.697 1847.92 161.154M1862.23 245.496L1947.33 307.246H2034.68L2038.45 298.962L1911.93 206.337C1895.37 219.138 1878.05 231.941 1862.23 245.496Z" fill="white"/>
<path d="M1771.11 307.246H1692.04L1685.26 296.702C1738.73 244.743 1978.2 23.3448 2498.56 6.10352e-05C2498.56 6.10352e-05 2062.55 15.0603 1771.11 307.246Z" fill="white"/>
</g>
<defs>
<clipPath id="clip0_19_2">
<rect width="2500" height="308" fill="white"/>
</clipPath>
</defs>
</svg>
